<?xml version="1.0" standalone="no"?>
<!DOCTYPE svg PUBLIC "-//W3C//DTD SVG 20010904//EN"
 "http://www.w3.org/TR/2001/REC-SVG-20010904/DTD/svg10.dtd">
<svg version="1.0" xmlns="http://www.w3.org/2000/svg"
 width="1024.000000pt" height="1024.000000pt" viewBox="0 0 1024.000000 1024.000000"
 preserveAspectRatio="xMidYMid meet">

<g transform="translate(0.000000,1024.000000) scale(0.100000,-0.100000)"
fill="#000000" stroke="none">
<path d="M0 5120 l0 -5120 5120 0 5120 0 0 5120 0 5120 -5120 0 -5120 0 0
-5120z m5317 3359 c681 -56 1261 -270 1778 -658 330 -247 650 -591 855 -921
264 -424 427 -871 506 -1390 22 -142 31 -638 15 -807 -88 -927 -545 -1784
-1266 -2374 -468 -383 -1018 -625 -1640 -719 -179 -28 -630 -39 -805 -21 -654
69 -1214 288 -1734 678 -596 448 -1072 1159 -1252 1873 -81 320 -108 549 -108
905 0 349 26 556 113 901 38 149 62 218 144 419 281 688 778 1269 1406 1644
361 216 742 355 1171 429 261 45 576 61 817 41z"/>
<path d="M4745 8345 c-1360 -124 -2510 -1116 -2855 -2460 -113 -440 -136 -927
-65 -1380 90 -574 322 -1106 679 -1555 118 -148 392 -426 526 -532 497 -393
1042 -619 1690 -700 64 -8 211 -13 380 -13 286 1 414 13 665 65 511 106 1028
363 1430 711 215 187 415 409 568 630 72 105 247 397 247 412 0 3 22 51 49
108 146 312 242 666 283 1044 17 155 17 608 0 745 -79 646 -302 1191 -696
1700 -94 121 -362 395 -486 497 -87 70 -267 202 -327 238 -249 150 -294 173
-538 275 -438 184 -1016 264 -1550 215z m1269 -745 c0 -87 -19 -132 -83 -198
-47 -48 -112 -83 -196 -107 -226 -63 -309 -102 -399 -185 -77 -72 -117 -133
-159 -238 -30 -75 -31 -81 -35 -279 l-4 -203 -35 0 -35 0 5 198 c5 220 16 274
85 407 75 144 243 270 436 326 190 56 225 70 275 115 58 52 77 89 86 169 9 73
11 77 38 73 20 -3 22 -9 21 -78z m-1773 -1140 c10 -6 26 -24 34 -40 l16 -30
-84 0 c-161 0 -337 -44 -499 -125 -49 -24 -88 -41 -88 -39 0 3 21 28 47 56 68
72 209 140 363 174 69 15 185 17 211 4z m1968 -11 c91 -23 204 -67 266 -104
39 -23 136 -115 122 -115 -4 0 -38 15 -75 34 -155 78 -294 114 -476 125 l-110
6 33 38 c32 35 36 37 95 37 34 0 99 -9 145 -21z m-3 -143 c213 -45 403 -154
528 -303 124 -149 181 -301 197 -522 5 -74 27 -243 48 -375 82 -497 99 -641
107 -896 10 -320 -17 -497 -102 -667 -80 -161 -190 -250 -321 -261 -53 -4 -70
-1 -117 22 -120 59 -191 169 -636 991 -46 84 -46 89 -2 142 82 98 132 222 132
323 0 67 -26 177 -57 239 -36 75 -136 172 -220 213 -65 32 -73 33 -183 33
-108 0 -119 -2 -180 -31 -184 -88 -279 -272 -235 -458 13 -59 49 -146 59 -146
3 0 -4 25 -15 55 -33 93 -21 206 33 313 39 78 109 144 196 185 60 28 76 32
152 31 56 0 98 -6 124 -18 116 -49 204 -140 247 -255 30 -80 24 -212 -13 -294
-37 -79 -116 -160 -196 -199 -122 -60 -279 -49 -392 27 l-52 35 -236 0 -235 0
-61 -34 c-79 -44 -155 -66 -227 -66 -127 0 -276 76 -349 178 -43 60 -48 61
-25 6 33 -79 103 -151 204 -211 9 -5 -353 -675 -446 -826 -145 -234 -279 -304
-439 -228 -76 36 -125 78 -176 154 -109 160 -158 362 -158 647 0 242 26 487
101 960 24 151 44 316 49 405 7 132 12 163 44 260 105 323 407 557 754 583 48
4 524 6 1057 5 815 -2 982 -5 1041 -17z m-2721 -28 c-16 -12 -45 -37 -62 -54
-33 -32 -33 -33 -33 -127 0 -88 -2 -98 -35 -161 l-35 -67 0 215 0 216 98 0 97
-1 -30 -21z m3445 -195 c-1 -194 -2 -216 -15 -199 -8 11 -15 25 -15 31 0 6
-12 27 -26 46 -24 32 -25 38 -19 115 8 103 -6 140 -69 183 -25 18 -46 34 -46
36 0 3 43 5 95 5 l95 0 0 -217z m-2265 -2098 c146 -30 322 -142 399 -254 26
-37 29 -51 42 -218 8 -98 13 -209 12 -248 l-3 -69 -38 78 c-126 254 -431 403
-807 394 -82 -2 -130 1 -130 7 0 6 19 42 43 82 128 219 137 232 159 236 55 11
258 6 323 -8z m1338 -75 c27 -47 68 -119 92 -161 l42 -76 -151 -6 c-374 -14
-624 -150 -763 -417 l-38 -73 -3 52 c-2 28 4 125 12 215 9 90 16 182 16 204 0
78 128 215 265 282 106 53 193 69 344 67 l135 -2 49 -85z m1227 -598 c33 -183
60 -341 60 -351 0 -17 -18 -18 -262 -25 -267 -7 -828 -30 -973 -41 -122 -9
-301 -33 -395 -54 -46 -10 -90 -17 -96 -14 -7 2 -33 -23 -58 -56 -74 -96 -53
-91 -358 -91 -201 0 -270 3 -278 13 -49 58 -110 141 -110 150 0 7 -5 5 -10 -4
-9 -15 -17 -15 -97 2 -161 35 -286 49 -523 59 -129 6 -320 15 -425 21 -104 5
-310 13 -457 16 l-268 6 0 27 c0 15 27 177 60 358 33 182 60 333 60 336 0 4 4
6 8 6 5 0 4 -33 0 -72 -5 -40 -19 -182 -31 -315 -18 -188 -20 -243 -10 -243 6
0 74 9 150 20 526 75 1127 100 1358 56 193 -36 354 -127 396 -222 35 -79 0
-101 -67 -43 -82 71 -227 130 -394 160 -158 29 -711 15 -1120 -29 l-165 -17
150 -6 c83 -4 314 -7 515 -8 375 -1 592 -15 745 -46 84 -18 172 -57 181 -80 3
-8 21 -24 39 -35 30 -19 49 -20 305 -20 l273 0 47 44 c58 54 130 79 315 108
110 17 206 21 615 28 267 5 521 9 564 9 44 1 77 3 75 5 -8 8 -307 36 -564 52
-386 24 -638 11 -820 -41 -87 -25 -192 -80 -241 -125 -46 -42 -62 -48 -82 -28
-20 20 -14 52 19 96 77 105 255 184 479 211 229 29 765 -1 1230 -69 74 -10
136 -17 138 -15 6 5 -17 270 -33 390 -19 141 -27 266 -15 235 5 -14 36 -175
70 -358z m-115 17 l7 -167 -38 7 c-22 5 -85 16 -141 26 -57 10 -103 21 -103
25 0 4 10 16 23 27 20 19 27 20 83 10 82 -14 94 -8 94 45 0 24 -4 59 -10 78
-9 30 -6 42 28 107 37 72 37 72 44 41 3 -17 9 -107 13 -199z m-3880 111 c11
-12 11 -26 3 -63 -5 -27 -7 -69 -3 -94 6 -40 9 -44 28 -39 12 2 46 8 75 12 47
6 56 4 78 -17 l25 -23 -78 -17 c-43 -10 -109 -21 -147 -25 l-68 -7 6 164 c4
90 10 177 13 194 l6 29 24 -49 c14 -28 31 -57 38 -65z m1305 94 c240 -45 436
-175 539 -357 l23 -42 -28 35 c-99 120 -194 191 -329 246 -145 58 -221 69
-486 69 l-236 0 10 23 c15 33 46 38 278 40 98 1 174 -3 229 -14z m1697 -10 c7
-10 13 -23 13 -28 0 -8 -73 -11 -223 -11 -201 0 -231 -3 -312 -24 -113 -29
-273 -105 -343 -161 -30 -24 -76 -72 -103 -108 -58 -77 -65 -71 -11 11 100
149 229 246 399 297 138 42 208 50 392 46 154 -3 176 -6 188 -22z m-1731 -149
c251 -43 451 -150 553 -295 56 -80 51 -90 -11 -24 -67 71 -200 159 -297 196
-152 59 -218 70 -451 75 -118 2 -258 0 -310 -5 -52 -5 -97 -7 -99 -5 -3 2 5
13 16 25 16 16 44 23 120 33 141 18 373 18 479 0z m1798 -4 c21 -5 47 -18 57
-28 18 -18 11 -18 -254 -18 -245 0 -281 -2 -363 -22 -202 -48 -340 -119 -456
-234 -42 -42 -74 -70 -71 -60 19 52 117 160 191 210 105 72 276 135 427 157
99 15 402 11 469 -5z"/>
<path d="M6180 6054 c-73 -32 -110 -92 -110 -179 0 -64 14 -97 62 -141 96 -91
243 -61 299 61 73 158 -92 328 -251 259z m133 -48 c101 -42 118 -166 34 -244
-56 -53 -166 -33 -209 36 -75 122 44 263 175 208z"/>
<path d="M3710 5963 c-8 -3 -25 -15 -37 -26 -21 -19 -23 -30 -23 -116 0 -53
-5 -103 -10 -111 -7 -11 -32 -16 -94 -18 -74 -4 -87 -7 -108 -29 -20 -22 -23
-36 -27 -126 -2 -82 0 -108 14 -134 21 -39 30 -42 127 -50 43 -3 82 -11 88
-18 5 -6 11 -53 12 -104 3 -90 4 -95 31 -115 24 -18 42 -21 127 -21 90 0 100
2 124 24 24 23 26 31 26 115 0 50 5 98 10 106 6 11 35 16 102 20 92 5 92 5
116 40 22 32 24 43 20 137 -5 137 -15 148 -134 156 -46 2 -91 10 -99 17 -11 9
-15 36 -15 109 0 92 -2 99 -26 122 -23 21 -36 24 -117 26 -51 1 -99 0 -107 -4z"/>
<path d="M5815 5686 c-62 -28 -115 -110 -115 -178 1 -68 60 -153 123 -177 40
-16 123 -14 156 3 58 30 111 115 111 176 0 61 -53 146 -111 176 -35 18 -124
18 -164 0z m169 -60 c13 -8 32 -35 41 -60 24 -63 14 -110 -35 -158 -34 -34
-43 -38 -90 -38 -63 0 -101 20 -129 70 -77 137 80 273 213 186z"/>
<path d="M6531 5682 c-19 -9 -48 -34 -65 -55 -29 -36 -31 -45 -31 -115 0 -65
4 -82 24 -110 86 -122 252 -114 328 16 22 37 25 52 21 107 -3 53 -9 71 -34
102 -41 51 -87 73 -154 73 -33 0 -69 -7 -89 -18z m140 -37 c15 -4 39 -20 55
-36 38 -39 45 -128 15 -176 -47 -75 -153 -89 -219 -29 -36 34 -37 36 -37 105
0 63 3 73 26 96 28 28 95 56 119 50 8 -2 27 -7 41 -10z"/>
<path d="M4724 5590 c-34 -14 -54 -50 -54 -96 0 -35 5 -47 31 -68 41 -35 80
-34 121 3 27 24 33 36 33 70 0 68 -71 117 -131 91z"/>
<path d="M5268 5584 c-35 -18 -48 -43 -48 -89 0 -28 7 -44 31 -66 35 -33 68
-37 109 -12 68 40 65 134 -5 168 -40 18 -52 18 -87 -1z"/>
<path d="M6172 5323 c-76 -37 -112 -116 -99 -214 20 -147 229 -202 329 -86 52
62 61 137 23 213 -34 69 -90 104 -165 104 -30 0 -70 -8 -88 -17z m164 -54 c74
-45 84 -153 21 -217 -30 -30 -44 -36 -89 -40 -44 -3 -59 0 -87 20 -77 52 -89
145 -29 214 49 56 116 64 184 23z"/>
<path d="M4455 5234 c-31 -9 -125 -55 -131 -66 -3 -5 14 1 37 14 37 19 59 23
134 23 83 0 95 -3 154 -34 131 -68 198 -152 225 -284 l13 -62 8 38 c25 126
-71 290 -203 350 -47 20 -189 33 -237 21z"/>
<path d="M4468 5135 c-69 -14 -126 -48 -173 -105 -56 -66 -69 -104 -69 -195
-1 -94 24 -154 89 -220 63 -63 125 -88 220 -88 68 -1 89 4 137 27 116 57 180
158 180 283 -1 86 -20 136 -83 206 -70 80 -185 115 -301 92z m143 -89 c172
-61 200 -293 48 -393 -48 -32 -136 -42 -194 -23 -84 28 -148 117 -148 206 0
155 149 262 294 210z"/>
<path d="M5495 5127 c-133 -44 -215 -162 -215 -306 1 -201 197 -344 393 -287
65 19 155 95 190 160 30 56 32 212 3 268 -31 63 -91 124 -147 147 -63 28 -169
36 -224 18z m197 -104 c82 -40 125 -133 107 -229 -39 -205 -314 -239 -411 -50
-74 144 61 332 222 308 19 -2 56 -15 82 -29z"/>
</g>
</svg>
